<svg xmlns="http://www.w3.org/2000/svg" viewBox="0 0 50 50" data-name="pinterest" data-modifiers="fill">
  <path d="M 25.037 0 C 11.21 0 0 11.18 0 24.973 C 0 35.553 6.597 44.593 15.91 48.227 C 15.693 46.25 15.497 43.22 15.997 41.063 C 16.453 39.11 18.933 28.653 18.933 28.653 C 18.933 28.653 18.183 27.153 18.183 24.943 C 18.183 21.477 20.203 18.877 22.71 18.877 C 24.85 18.877 25.88 20.48 25.88 22.393 C 25.88 24.537 24.517 27.743 23.81 30.71 C 23.213 33.197 25.063 35.22 27.517 35.22 C 31.96 35.22 35.387 30.543 35.387 23.79 C 35.387 17.83 31.077 13.647 24.927 13.647 C 17.807 13.647 13.63 18.983 13.63 24.477 C 13.63 26.63 14.453 28.943 15.487 30.187 C 15.693 30.437 15.72 30.657 15.663 30.907 C 15.477 31.687 15.053 33.403 14.967 33.747 C 14.857 34.217 14.607 34.31 14.13 34.09 C 11.007 32.653 9.047 28.093 9.047 24.41 C 9.047 16.543 14.787 9.303 25.59 9.303 C 34.273 9.303 41.027 15.483 41.027 23.727 C 41.027 32.34 35.583 39.27 28.01 39.27 C 25.473 39.27 23.093 37.96 22.25 36.397 L 20.687 42.333 C 20.123 44.51 18.59 47.233 17.557 48.887 C 19.903 49.603 22.373 50 24.97 50 C 38.77 50 50 38.823 50 25.027 C 50 11.23 38.77 0.053 24.97 0.053 L 25.037 0 Z"/>
</svg>
