<svg xmlns="http://www.w3.org/2000/svg" viewBox="0 0 50 50" data-name="linkedin" data-modifiers="fill">
  <path d="M 42.603 42.603 L 35.193 42.603 L 35.193 31 C 35.193 28.233 35.143 24.67 31.34 24.67 C 27.48 24.67 26.89 27.687 26.89 30.797 L 26.89 42.6 L 19.483 42.6 L 19.483 18.743 L 26.593 18.743 L 26.593 22.003 L 26.693 22.003 C 28.143 19.523 30.84 18.043 33.713 18.15 C 41.22 18.15 42.603 23.087 42.603 29.513 L 42.603 42.603 Z M 11.123 15.48 C 8.75 15.48 6.823 13.557 6.823 11.183 C 6.823 8.807 8.747 6.883 11.123 6.883 C 13.497 6.883 15.42 8.807 15.423 11.18 C 15.423 12.32 14.97 13.413 14.163 14.22 C 13.357 15.027 12.263 15.48 11.123 15.48 Z M 14.827 42.603 L 7.41 42.603 L 7.41 18.743 L 14.827 18.743 L 14.827 42.603 Z M 46.297 0.003 L 3.69 0.003 C 1.677 -0.02 0.023 1.593 0 3.607 L 0 46.39 C 0.023 48.407 1.673 50.02 3.69 50 L 46.297 50 C 48.313 50.023 49.97 48.41 50 46.39 L 50 3.603 C 49.97 1.587 48.313 -0.027 46.297 0"/>
</svg>
