<svg xmlns="http://www.w3.org/2000/svg" viewBox="0 0 50 50" data-name="facebook" data-modifiers="fill">
  <path d="M 2.76 50 C 1.237 50 0 48.763 0 47.24 L 0 2.76 C 0 1.233 1.237 0 2.76 0 L 47.24 0 C 48.763 0 50 1.233 50 2.76 L 50 47.24 C 50 48.763 48.763 50 47.24 50 L 34.5 50 L 34.5 30.637 L 41 30.637 L 41.973 23.09 L 34.5 23.09 L 34.5 18.273 C 34.5 16.087 35.11 14.6 38.24 14.6 L 42.236 14.597 L 42.236 7.85 C 41.546 7.757 39.173 7.55 36.413 7.55 C 30.653 7.55 26.71 11.067 26.71 17.527 L 26.71 23.09 L 20.193 23.09 L 20.193 30.637 L 26.71 30.637 L 26.71 50 Z"/>
</svg>
