<svg xmlns="http://www.w3.org/2000/svg" viewBox="0 0 50 42.9" data-name="triangle" data-modifiers="fill">
  <path data-circle="" d="M 24.995 21.143 C 25.777 21.143 26.498 20.957 27.17 20.571 C 27.78 20.228 28.295 19.703 28.634 19.093 C 28.977 18.482 29.166 17.775 29.166 17.036 C 29.166 16.296 28.977 15.618 28.605 14.978 C 28.223 14.346 27.723 13.843 27.08 13.478 C 26.437 13.107 25.737 12.928 24.984 12.928 C 24.234 12.928 23.53 13.114 22.887 13.478 C 22.248 13.843 21.737 14.346 21.366 14.978 C 20.984 15.607 20.805 16.286 20.805 17.036 C 20.805 17.786 20.984 18.443 21.334 19.086 C 21.687 19.725 22.187 20.218 22.798 20.571 C 23.47 20.957 24.202 21.143 24.984 21.143 L 24.995 21.143 Z"/>
  <path data-circle="" d="M 14.687 35.689 C 15.47 35.689 16.191 35.503 16.862 35.118 C 17.473 34.775 17.987 34.253 18.327 33.643 C 18.67 33.032 18.859 32.321 18.859 31.582 C 18.859 30.846 18.67 30.164 18.298 29.525 C 17.916 28.893 17.416 28.393 16.773 28.028 C 16.13 27.653 15.43 27.475 14.677 27.475 C 13.927 27.475 13.223 27.664 12.58 28.028 C 11.941 28.393 11.43 28.893 11.059 29.525 C 10.677 30.153 10.498 30.836 10.498 31.582 C 10.498 32.332 10.677 32.993 11.027 33.632 C 11.38 34.271 11.88 34.764 12.491 35.118 C 13.162 35.503 13.895 35.689 14.677 35.689 L 14.687 35.689 Z"/>
  <path data-circle="" d="M 35.173 35.689 C 35.955 35.689 36.677 35.503 37.348 35.118 C 37.959 34.775 38.47 34.253 38.812 33.643 C 39.152 33.032 39.341 32.321 39.341 31.582 C 39.341 30.846 39.152 30.153 38.78 29.525 C 38.402 28.893 37.898 28.393 37.255 28.028 C 36.616 27.653 35.912 27.475 35.162 27.475 C 34.409 27.475 33.709 27.664 33.077 28.028 C 32.434 28.393 31.923 28.893 31.552 29.525 C 31.17 30.153 30.991 30.836 30.991 31.582 C 30.991 32.332 31.17 32.993 31.523 33.632 C 31.873 34.271 32.373 34.764 32.984 35.118 C 33.659 35.503 34.391 35.689 35.173 35.689 Z"/>
  <path d="M 50 42.859 L 0 42.859 L 25.002 0 Z M 35.173 35.689 C 35.955 35.689 36.677 35.503 37.348 35.118 C 37.959 34.775 38.47 34.253 38.812 33.643 C 39.152 33.032 39.341 32.321 39.341 31.582 C 39.341 30.846 39.152 30.153 38.78 29.525 C 38.402 28.893 37.898 28.393 37.255 28.028 C 36.616 27.653 35.912 27.475 35.162 27.475 C 34.409 27.475 33.709 27.664 33.077 28.028 C 32.434 28.393 31.923 28.893 31.552 29.525 C 31.17 30.153 30.991 30.836 30.991 31.582 C 30.991 32.332 31.17 32.993 31.523 33.632 C 31.873 34.271 32.373 34.764 32.984 35.118 C 33.659 35.503 34.391 35.689 35.173 35.689 Z M 14.687 35.689 C 15.47 35.689 16.191 35.503 16.862 35.118 C 17.473 34.775 17.987 34.253 18.327 33.643 C 18.67 33.032 18.859 32.321 18.859 31.582 C 18.859 30.846 18.67 30.164 18.298 29.525 C 17.916 28.893 17.416 28.393 16.773 28.028 C 16.13 27.653 15.43 27.475 14.677 27.475 C 13.927 27.475 13.223 27.664 12.58 28.028 C 11.941 28.393 11.43 28.893 11.059 29.525 C 10.677 30.153 10.498 30.836 10.498 31.582 C 10.498 32.332 10.677 32.993 11.027 33.632 C 11.38 34.271 11.88 34.764 12.491 35.118 C 13.162 35.503 13.895 35.689 14.677 35.689 Z M 24.995 21.143 C 25.777 21.143 26.498 20.957 27.17 20.571 C 27.78 20.228 28.295 19.703 28.634 19.093 C 28.977 18.482 29.166 17.775 29.166 17.036 C 29.166 16.296 28.977 15.618 28.605 14.978 C 28.223 14.346 27.723 13.843 27.08 13.478 C 26.437 13.107 25.737 12.928 24.984 12.928 C 24.234 12.928 23.53 13.114 22.887 13.478 C 22.248 13.843 21.737 14.346 21.366 14.978 C 20.984 15.607 20.805 16.286 20.805 17.036 C 20.805 17.786 20.984 18.443 21.334 19.086 C 21.687 19.725 22.187 20.218 22.798 20.571 C 23.47 20.957 24.202 21.143 24.984 21.143 Z"/>
</svg>