<svg xmlns="http://www.w3.org/2000/svg" viewBox="0 0 50 50" data-name="star">
  <path data-edge="" data-half-star="" d="M 11.355 49.801 C 10.792 50.11 10.113 50.056 9.6 49.668 C 9.084 49.276 8.83 48.614 8.938 47.96 L 11.542 32.034 L 0.504 20.759 C 0.05 20.296 -0.117 19.601 0.083 18.967 C 0.279 18.338 0.8 17.876 1.425 17.78 L 16.684 15.459 L 23.505 0.971 C 23.624 0.721 23.795 0.51 24 0.349 L 24 42.832 Z"></path>
  <path data-edge="" d="M 26.497 0.971 C 26.213 0.375 25.634 0 25.001 0 C 24.368 0 23.788 0.375 23.505 0.971 L 16.684 15.459 L 1.425 17.78 C 0.8 17.876 0.279 18.338 0.083 18.967 C -0.117 19.601 0.05 20.296 0.504 20.759 L 11.542 32.034 L 8.938 47.96 C 8.83 48.614 9.084 49.276 9.6 49.668 C 10.113 50.056 10.792 50.11 11.355 49.801 L 25.001 42.28 L 38.647 49.801 C 39.21 50.11 39.889 50.056 40.401 49.668 C 40.914 49.276 41.172 48.614 41.064 47.96 L 38.46 32.034 L 49.497 20.759 C 49.952 20.296 50.114 19.601 49.918 18.967 C 49.722 18.338 49.202 17.876 48.572 17.78 L 33.318 15.459 L 26.497 0.971 Z"></path>
</svg>
