<svg xmlns="http://www.w3.org/2000/svg" viewBox="0 0 40 50" data-name="tiktok" data-modifiers="fill">
  <path d="M 21.008 0.04 C 23.521 0 26.015 0.02 28.511 0 C 28.665 3.187 29.718 6.437 31.868 8.687 C 34.015 10.997 37.048 12.06 40.002 12.414 L 40.002 20.811 C 37.238 20.707 34.458 20.081 31.945 18.791 C 30.851 18.247 29.835 17.561 28.835 16.854 C 28.818 22.938 28.855 29.021 28.798 35.081 C 28.645 37.998 27.761 40.895 26.208 43.292 C 23.695 47.292 19.341 49.895 14.871 49.979 C 12.127 50.145 9.384 49.332 7.041 47.832 C 3.167 45.355 0.444 40.812 0.04 35.938 C 0 34.895 -0.016 33.855 0.02 32.831 C 0.367 28.874 2.17 25.081 4.97 22.498 C 8.154 19.497 12.604 18.061 16.768 18.914 C 16.808 21.998 16.691 25.081 16.691 28.164 C 14.794 27.498 12.567 27.688 10.897 28.938 C 9.691 29.791 8.767 31.105 8.291 32.581 C 7.887 33.645 8.001 34.811 8.021 35.938 C 8.481 39.355 11.511 42.228 14.734 41.915 C 16.884 41.895 18.938 40.542 20.048 38.561 C 20.414 37.875 20.818 37.165 20.834 36.355 C 21.028 32.625 20.951 28.914 20.971 25.188 C 20.988 16.791 20.951 8.414 21.008 0.04 Z"/>
</svg>