<svg xmlns="http://www.w3.org/2000/svg" viewBox="0 0 50 50" data-name="instagram" data-modifiers="fill">
  <path d="M 25 4.503 C 31.673 4.503 32.463 4.53 35.1 4.65 C 37.54 4.76 38.863 5.17 39.743 5.51 C 40.91 5.963 41.743 6.507 42.617 7.38 C 43.493 8.257 44.033 9.09 44.487 10.257 C 44.83 11.137 45.237 12.46 45.35 14.897 C 45.47 17.533 45.493 18.323 45.493 25 C 45.493 31.677 45.47 32.467 45.35 35.103 C 45.237 37.54 44.83 38.863 44.487 39.743 C 44.033 40.91 43.493 41.743 42.617 42.62 C 41.743 43.493 40.91 44.037 39.743 44.49 C 38.863 44.83 37.54 45.24 35.1 45.35 C 32.463 45.47 31.673 45.497 25 45.497 C 18.323 45.497 17.533 45.47 14.897 45.35 C 12.46 45.24 11.137 44.83 10.253 44.49 C 9.087 44.037 8.253 43.493 7.38 42.62 C 6.507 41.743 5.963 40.91 5.51 39.743 C 5.167 38.863 4.76 37.54 4.65 35.103 C 4.53 32.467 4.503 31.677 4.503 25 C 4.503 18.323 4.53 17.533 4.65 14.897 C 4.76 12.46 5.167 11.137 5.51 10.257 C 5.963 9.09 6.507 8.257 7.38 7.38 C 8.253 6.507 9.087 5.963 10.253 5.51 C 11.137 5.17 12.46 4.76 14.897 4.65 C 17.533 4.53 18.323 4.503 25 4.503 Z M 25 0 C 18.21 0 17.357 0.03 14.69 0.15 C 12.03 0.27 10.213 0.693 8.623 1.313 C 6.98 1.95 5.583 2.807 4.193 4.197 C 2.803 5.587 1.95 6.98 1.31 8.623 C 0.693 10.213 0.27 12.03 0.15 14.693 C 0.027 17.36 0 18.21 0 25 C 0 31.79 0.027 32.64 0.15 35.307 C 0.27 37.97 0.693 39.787 1.31 41.377 C 1.95 43.02 2.803 44.413 4.193 45.803 C 5.583 47.193 6.98 48.05 8.623 48.687 C 10.213 49.307 12.03 49.727 14.69 49.85 C 17.357 49.97 18.21 50 25 50 C 31.787 50 32.64 49.97 35.307 49.85 C 37.967 49.727 39.783 49.307 41.373 48.687 C 43.02 48.05 44.413 47.193 45.803 45.803 C 47.193 44.413 48.047 43.02 48.687 41.377 C 49.303 39.787 49.727 37.97 49.85 35.307 C 49.97 32.64 50 31.79 50 25 C 50 18.21 49.97 17.36 49.85 14.693 C 49.727 12.03 49.303 10.213 48.687 8.623 C 48.047 6.98 47.193 5.587 45.803 4.197 C 44.413 2.807 43.02 1.95 41.373 1.313 C 39.783 0.693 37.967 0.27 35.307 0.15 C 32.64 0.03 31.787 0 25 0 Z M 25 12.163 C 17.91 12.163 12.16 17.91 12.16 25 C 12.16 32.09 17.91 37.837 25 37.837 C 32.09 37.837 37.837 32.09 37.837 25 C 37.837 17.91 32.09 12.163 25 12.163 Z M 25 33.333 C 20.397 33.333 16.667 29.603 16.667 25 C 16.667 20.397 20.397 16.667 25 16.667 C 29.6 16.667 33.333 20.397 33.333 25 C 33.333 29.603 29.6 33.333 25 33.333 Z M 41.343 11.653 C 41.343 13.31 40 14.653 38.343 14.653 C 36.687 14.653 35.343 13.31 35.343 11.653 C 35.343 9.997 36.687 8.653 38.343 8.653 C 40 8.653 41.343 9.997 41.343 11.653 Z"/>
</svg>
